<svg xmlns="http://www.w3.org/2000/svg" xmlns:xlink="http://www.w3.org/1999/xlink" width="500" zoomAndPan="magnify" viewBox="0 0 375 374.999991" height="500" preserveAspectRatio="xMidYMid meet" version="1.0"><defs><clipPath id="54fda7ef73"><path d="M 12.746094 12.746094 L 362.246094 12.746094 L 362.246094 362.246094 L 12.746094 362.246094 Z M 12.746094 12.746094 " clip-rule="nonzero"/></clipPath></defs><g clip-path="url(#54fda7ef73)"><path stroke-linecap="butt" transform="matrix(5.460937, 0, 0, 5.460937, -6278.253423, -1385.253653)" fill="none" stroke-linejoin="round" d="M -0.0000884504 -0.0000463684 L 1280.00001 -0.0000463684 L 1280.00001 800.000015 L -0.0000884504 800.000015 Z M -0.0000884504 -0.0000463684 " stroke="#ffffff" stroke-width="1" stroke-opacity="1" stroke-miterlimit="2"/></g><path stroke-linecap="butt" transform="matrix(4.729308, 2.730469, -2.730469, 4.729308, -2356.051017, -3503.539234)" fill-opacity="1" fill="#ffffff" fill-rule="evenodd" stroke-linejoin="round" d="M 737.672956 328.231382 C 738.49438 328.056132 739.333852 328.427164 739.757097 329.151662 C 739.954917 329.462823 740.106013 329.721667 740.106013 329.721667 C 740.106013 329.721667 745.206097 338.581018 739.428904 352.782072 C 737.079224 358.559234 736.492193 366.083239 738.435232 371.67901 C 738.69701 372.425698 738.481921 373.257732 737.890168 373.783572 C 737.297794 374.30977 736.447183 374.425882 735.735306 374.076995 C 730.191784 371.375195 722.028026 365.057762 722.021075 351.999942 C 722.015226 340.225862 728.812078 330.278749 737.672956 328.231382 Z M 737.672956 328.231382 " stroke="#ffffff" stroke-width="1" stroke-opacity="1" stroke-miterlimit="2"/><path stroke-linecap="butt" transform="matrix(-4.729308, -2.730469, 2.730469, -4.729308, 2735.425601, 3875.225362)" fill-opacity="1" fill="#ffffff" fill-rule="evenodd" stroke-linejoin="round" d="M 737.608594 328.24595 C 738.465283 328.060251 739.34377 328.445926 739.784994 329.202994 C 739.969843 329.490258 740.106179 329.722107 740.106179 329.722107 C 740.106179 329.722107 745.205905 338.580839 739.428712 352.781893 C 737.100273 358.507145 736.50311 365.947795 738.382994 371.527167 C 738.645615 372.303928 738.415213 373.163802 737.795749 373.703162 C 737.177262 374.242785 736.294431 374.356024 735.559671 373.988962 C 730.020113 371.241096 722.027933 364.920415 722.020883 351.999762 C 722.01614 340.254779 728.779278 330.327956 737.608594 328.24595 Z M 737.608594 328.24595 " stroke="#ffffff" stroke-width="1" stroke-opacity="1" stroke-miterlimit="2"/></svg>